<svg xmlns="http://www.w3.org/2000/svg" xmlns:xlink="http://www.w3.org/1999/xlink" contentStyleType="text/css" data-diagram-type="DESCRIPTION" height="560px" preserveAspectRatio="none" style="width:1335px;height:560px;background:#FFFFFF;" version="1.1" viewBox="0 0 1335 560" width="1335px" zoomAndPan="magnify"><?plantuml 1.2026.3beta6?><defs/><g><!--cluster Trading Bot V5--><g class="cluster" data-qualified-name="Trading Bot V5" data-source-line="3" id="ent0003"><rect fill="none" height="377" rx="2.5" ry="2.5" style="stroke:#181818;stroke-width:1;" width="1168.94" x="7" y="97.65"/><text fill="#000000" font-family="sans-serif" font-size="14" font-weight="700" lengthAdjust="spacing" textLength="118.0156" x="532.4622" y="112.6451">Trading Bot V5</text></g><!--entity Telegram--><g class="entity" data-qualified-name="Trading Bot V5.Telegram" data-source-line="4" id="ent0004"><rect fill="#F1F1F1" height="46.2969" rx="2.5" ry="2.5" style="stroke:#181818;stroke-width:0.5;" width="134.6367" x="536" y="213.5"/><rect fill="#F1F1F1" height="10" style="stroke:#181818;stroke-width:0.5;" width="15" x="650.6367" y="218.5"/><rect fill="#F1F1F1" height="2" style="stroke:#181818;stroke-width:0.5;" width="4" x="648.6367" y="220.5"/><rect fill="#F1F1F1" height="2" style="stroke:#181818;stroke-width:0.5;" width="4" x="648.6367" y="224.5"/><text fill="#000000" font-family="sans-serif" font-size="14" lengthAdjust="spacing" textLength="94.6367" x="551" y="246.4951">Telegram Bot</text></g><!--entity Dashboard--><g class="entity" data-qualified-name="Trading Bot V5.Dashboard" data-source-line="5" id="ent0005"><rect fill="#F1F1F1" height="46.2969" rx="2.5" ry="2.5" style="stroke:#181818;stroke-width:0.5;" width="151.9932" x="527.32" y="132.5"/><rect fill="#F1F1F1" height="10" style="stroke:#181818;stroke-width:0.5;" width="15" x="659.3132" y="137.5"/><rect fill="#F1F1F1" height="2" style="stroke:#181818;stroke-width:0.5;" width="4" x="657.3132" y="139.5"/><rect fill="#F1F1F1" height="2" style="stroke:#181818;stroke-width:0.5;" width="4" x="657.3132" y="143.5"/><text fill="#000000" font-family="sans-serif" font-size="14" lengthAdjust="spacing" textLength="111.9932" x="542.32" y="165.4951">Web Dashboard</text></g><!--entity Control--><g class="entity" data-qualified-name="Trading Bot V5.Control" data-source-line="6" id="ent0006"><rect fill="#F1F1F1" height="46.2969" rx="2.5" ry="2.5" style="stroke:#181818;stroke-width:0.5;" width="142.6553" x="797.22" y="213.5"/><rect fill="#F1F1F1" height="10" style="stroke:#181818;stroke-width:0.5;" width="15" x="919.8753" y="218.5"/><rect fill="#F1F1F1" height="2" style="stroke:#181818;stroke-width:0.5;" width="4" x="917.8753" y="220.5"/><rect fill="#F1F1F1" height="2" style="stroke:#181818;stroke-width:0.5;" width="4" x="917.8753" y="224.5"/><text fill="#000000" font-family="sans-serif" font-size="14" lengthAdjust="spacing" textLength="102.6553" x="812.22" y="246.4951">ControlService</text></g><!--entity Engine--><g class="entity" data-qualified-name="Trading Bot V5.Engine" data-source-line="7" id="ent0007"><rect fill="#F1F1F1" height="46.2969" rx="2.5" ry="2.5" style="stroke:#181818;stroke-width:0.5;" width="141.4043" x="23" y="250.5"/><rect fill="#F1F1F1" height="10" style="stroke:#181818;stroke-width:0.5;" width="15" x="144.4043" y="255.5"/><rect fill="#F1F1F1" height="2" style="stroke:#181818;stroke-width:0.5;" width="4" x="142.4043" y="257.5"/><rect fill="#F1F1F1" height="2" style="stroke:#181818;stroke-width:0.5;" width="4" x="142.4043" y="261.5"/><text fill="#000000" font-family="sans-serif" font-size="14" lengthAdjust="spacing" textLength="101.4043" x="38" y="283.4951">TradingEngine</text></g><!--entity Strategy--><g class="entity" data-qualified-name="Trading Bot V5.Strategy" data-source-line="8" id="ent0008"><rect fill="#F1F1F1" height="46.2969" rx="2.5" ry="2.5" style="stroke:#181818;stroke-width:0.5;" width="169.2266" x="232.3" y="331.5"/><rect fill="#F1F1F1" height="10" style="stroke:#181818;stroke-width:0.5;" width="15" x="381.5266" y="336.5"/><rect fill="#F1F1F1" height="2" style="stroke:#181818;stroke-width:0.5;" width="4" x="379.5266" y="338.5"/><rect fill="#F1F1F1" height="2" style="stroke:#181818;stroke-width:0.5;" width="4" x="379.5266" y="342.5"/><text fill="#000000" font-family="sans-serif" font-size="14" lengthAdjust="spacing" textLength="129.2266" x="247.3" y="364.4951">MA Cross Strategy</text></g><!--entity Risk--><g class="entity" data-qualified-name="Trading Bot V5.Risk" data-source-line="9" id="ent0009"><rect fill="#F1F1F1" height="46.2969" rx="2.5" ry="2.5" style="stroke:#181818;stroke-width:0.5;" width="185.0176" x="224.4" y="250.5"/><rect fill="#F1F1F1" height="10" style="stroke:#181818;stroke-width:0.5;" width="15" x="389.4176" y="255.5"/><rect fill="#F1F1F1" height="2" style="stroke:#181818;stroke-width:0.5;" width="4" x="387.4176" y="257.5"/><rect fill="#F1F1F1" height="2" style="stroke:#181818;stroke-width:0.5;" width="4" x="387.4176" y="261.5"/><text fill="#000000" font-family="sans-serif" font-size="14" lengthAdjust="spacing" textLength="145.0176" x="239.4" y="283.4951">Fixed Fractional Risk</text></g><!--entity Exchange--><g class="entity" data-qualified-name="Trading Bot V5.Exchange" data-source-line="10" id="ent0010"><rect fill="#F1F1F1" height="46.2969" rx="2.5" ry="2.5" style="stroke:#181818;stroke-width:0.5;" width="168.8916" x="232.47" y="412.5"/><rect fill="#F1F1F1" height="10" style="stroke:#181818;stroke-width:0.5;" width="15" x="381.3616" y="417.5"/><rect fill="#F1F1F1" height="2" style="stroke:#181818;stroke-width:0.5;" width="4" x="379.3616" y="419.5"/><rect fill="#F1F1F1" height="2" style="stroke:#181818;stroke-width:0.5;" width="4" x="379.3616" y="423.5"/><text fill="#000000" font-family="sans-serif" font-size="14" lengthAdjust="spacing" textLength="128.8916" x="247.47" y="445.4951">Exchange Adapter</text></g><!--entity Store--><g class="entity" data-qualified-name="Trading Bot V5.Store" data-source-line="11" id="ent0011"><rect fill="#F1F1F1" height="46.2969" rx="2.5" ry="2.5" style="stroke:#181818;stroke-width:0.5;" width="160.0664" x="999.87" y="213.5"/><rect fill="#F1F1F1" height="10" style="stroke:#181818;stroke-width:0.5;" width="15" x="1139.9364" y="218.5"/><rect fill="#F1F1F1" height="2" style="stroke:#181818;stroke-width:0.5;" width="4" x="1137.9364" y="220.5"/><rect fill="#F1F1F1" height="2" style="stroke:#181818;stroke-width:0.5;" width="4" x="1137.9364" y="224.5"/><text fill="#000000" font-family="sans-serif" font-size="14" lengthAdjust="spacing" textLength="120.0664" x="1014.87" y="246.4951">SQLiteStateStore</text></g><!--entity Notifier--><g class="entity" data-qualified-name="Trading Bot V5.Notifier" data-source-line="12" id="ent0012"><rect fill="#F1F1F1" height="46.2969" rx="2.5" ry="2.5" style="stroke:#181818;stroke-width:0.5;" width="158.1318" x="237.85" y="132.5"/><rect fill="#F1F1F1" height="10" style="stroke:#181818;stroke-width:0.5;" width="15" x="375.9818" y="137.5"/><rect fill="#F1F1F1" height="2" style="stroke:#181818;stroke-width:0.5;" width="4" x="373.9818" y="139.5"/><rect fill="#F1F1F1" height="2" style="stroke:#181818;stroke-width:0.5;" width="4" x="373.9818" y="143.5"/><text fill="#000000" font-family="sans-serif" font-size="14" lengthAdjust="spacing" textLength="118.1318" x="252.85" y="165.4951">TelegramNotifier</text></g><!--entity Operator--><g class="entity" data-qualified-name="Operator" data-source-line="2" id="ent0002"><ellipse cx="316.9125" cy="14" fill="#F1F1F1" rx="8" ry="8" style="stroke:#181818;stroke-width:0.5;"/><path d="M316.9125,22 L316.9125,49 M303.9125,30 L329.9125,30 M316.9125,49 L303.9125,64 M316.9125,49 L329.9125,64" fill="none" style="stroke:#181818;stroke-width:0.5;"/><text fill="#000000" font-family="sans-serif" font-size="14" lengthAdjust="spacing" textLength="62.665" x="285.58" y="78.4951">Operator</text></g><!--entity DB--><g class="entity" data-qualified-name="DB" data-source-line="14" id="ent0013"><path d="M1219.94,224 C1219.94,214 1265.2066,214 1265.2066,214 C1265.2066,214 1310.4732,214 1310.4732,224 L1310.4732,249.2969 C1310.4732,259.2969 1265.2066,259.2969 1265.2066,259.2969 C1265.2066,259.2969 1219.94,259.2969 1219.94,249.2969 L1219.94,224" fill="#F1F1F1" style="stroke:#181818;stroke-width:0.5;"/><path d="M1219.94,224 C1219.94,234 1265.2066,234 1265.2066,234 C1265.2066,234 1310.4732,234 1310.4732,224" fill="none" style="stroke:#181818;stroke-width:0.5;"/><text fill="#000000" font-family="sans-serif" font-size="14" lengthAdjust="spacing" textLength="70.5332" x="1229.94" y="250.9951">SQLite DB</text></g><!--entity Market--><g class="entity" data-qualified-name="Market" data-source-line="15" id="ent0014"><path d="M479.1333,499.2697 C485.1328,490.2705 492.7739,490.2866 497.5667,500.4316 C502.4482,491.7794 509.7866,490.42 516.1604,498.8026 C521.6131,491.2329 528.2954,491.9165 533.561,499.0243 C537.8258,490.0636 545.6481,489.3486 550.9314,498.0211 C556.3517,487.5693 564.3418,489.3309 570.5656,497.1579 C575.013,489.0694 583.6002,488.7976 588.3292,496.8479 C592.3587,488.9881 597.1875,488.8451 603.3475,494.4763 C609.3462,485.9022 617.1688,486.8529 621.8026,495.9054 C629.2761,486.0835 636.9144,487.5143 641.7118,498.4697 C647.1343,490.0501 653.8205,490.109 659.0926,498.6241 C665.3159,490.14 670.7841,491.1995 677.069,498.5542 C682.3867,489.4425 690.2464,490.342 695.6248,498.4889 C701.7116,490.7887 709.1202,490.0092 713.6582,500.0621 C717.9495,492.5419 726.3471,492.6876 730.7011,499.9901 C743.0872,498.9357 746.8663,506.4489 742.1494,516.9437 C745.8452,524.9572 740.6463,531.5406 732.2183,530.9701 C727.5084,539.5754 718.9512,539.5584 713.8347,531.4165 C707.6234,541.3214 700.9034,542.3592 693.6634,532.4646 C688.9956,540.6986 681.9927,539.2338 678.1074,531.6929 C672.9719,541.1117 666.5791,541.9202 660.1176,532.9931 C655.286,543.7602 646.9958,545.109 639.8127,535.3152 C633.4393,541.9251 628.2816,542.2234 623.8471,533.3197 C619.312,543.2716 609.8982,543.4712 604.063,534.6929 C597.931,542.325 592.5593,543.8496 586.1165,535.0319 C580.6501,542.1873 574.3154,543.2129 568.586,535.3387 C561.7606,543.6957 554.4949,542.5097 550.6228,532.457 C544.8185,540.4917 538.6438,541.5496 532.9814,532.312 C527.7649,541.7759 520.095,540.292 515.405,531.7967 C508.8407,542.0776 501.3306,539.9937 495.9336,530.6392 C490.8299,538.7372 484.2424,538.725 479.3688,530.4071 C469.5188,530.2493 465.1655,525.9812 468.5215,515.9291 C462.8594,505.0601 468.8828,500.0026 479.1333,499.2697" fill="#F1F1F1" style="stroke:#181818;stroke-width:0.5;"/><text fill="#000000" font-family="sans-serif" font-size="14" lengthAdjust="spacing" textLength="237.7949" x="484.42" y="518.4951">Paper Exchange / CCXT Exchange</text></g><!--link Operator to Telegram--><g class="link" data-entity-1="ent0002" data-entity-2="ent0004" data-link-type="dependency" data-source-line="17" id="lnk15"><path d="M348.37,64.89 C366.99,78.59 390.74,97.4 409.42,116.65 C440.38,148.54 432.99,171.2 469.42,196.65 C488.98,210.31 507.4833,217.8415 529.9433,223.8415" fill="none" id="Operator-to-Telegram" style="stroke:#181818;stroke-width:1;"/><polygon fill="#181818" points="535.74,225.39,528.0773,219.2027,530.9094,224.0995,526.0126,226.9317,535.74,225.39" style="stroke:#181818;stroke-width:1;"/></g><!--link Operator to Dashboard--><g class="link" data-entity-1="ent0002" data-entity-2="ent0005" data-link-type="dependency" data-source-line="18" id="lnk16"><path d="M348.62,55.74 C394.8,73.93 477.4372,106.4717 536.6872,129.8017" fill="none" id="Operator-to-Dashboard" style="stroke:#181818;stroke-width:1;"/><polygon fill="#181818" points="542.27,132,535.3613,124.9807,537.6177,130.1681,532.4303,132.4245,542.27,132" style="stroke:#181818;stroke-width:1;"/></g><!--link Telegram to Control--><g class="link" data-entity-1="ent0004" data-entity-2="ent0006" data-link-type="dependency" data-source-line="19" id="lnk17"><path d="M671.08,236.65 C709.62,236.65 752.04,236.65 791.17,236.65" fill="none" id="Telegram-to-Control" style="stroke:#181818;stroke-width:1;"/><polygon fill="#181818" points="797.17,236.65,788.17,232.65,792.17,236.65,788.17,240.65,797.17,236.65" style="stroke:#181818;stroke-width:1;"/></g><!--link Dashboard to Control--><g class="link" data-entity-1="ent0005" data-entity-2="ent0006" data-link-type="dependency" data-source-line="20" id="lnk18"><path d="M679.57,178.12 C698.41,183.8 718.56,189.91 737.22,195.65 C756.6,201.62 771.847,206.3679 791.187,212.4579" fill="none" id="Dashboard-to-Control" style="stroke:#181818;stroke-width:1;"/><polygon fill="#181818" points="796.91,214.26,789.527,207.7415,792.1409,212.7582,787.1241,215.3721,796.91,214.26" style="stroke:#181818;stroke-width:1;"/></g><!--link Control to Store--><g class="link" data-entity-1="ent0006" data-entity-2="ent0011" data-link-type="dependency" data-source-line="21" id="lnk19"><path d="M940.13,236.65 C959.25,236.65 974.06,236.65 993.62,236.65" fill="none" id="Control-to-Store" style="stroke:#181818;stroke-width:1;"/><polygon fill="#181818" points="999.62,236.65,990.62,232.65,994.62,236.65,990.62,240.65,999.62,236.65" style="stroke:#181818;stroke-width:1;"/></g><!--link Store to DB--><g class="link" data-entity-1="ent0011" data-entity-2="ent0013" data-link-type="dependency" data-source-line="22" id="lnk20"><path d="M1160.24,236.65 C1180.56,236.65 1195.7,236.65 1213.57,236.65" fill="none" id="Store-to-DB" style="stroke:#181818;stroke-width:1;"/><polygon fill="#181818" points="1219.57,236.65,1210.57,232.65,1214.57,236.65,1210.57,240.65,1219.57,236.65" style="stroke:#181818;stroke-width:1;"/></g><!--link Engine to Control--><g class="link" data-entity-1="ent0007" data-entity-2="ent0006" data-link-type="dependency" data-source-line="23" id="lnk21"><path d="M155.8,250.11 C177.16,243.02 201.53,236.18 224.4,232.65 C305.67,220.11 331.41,206.65 409.42,232.65 C441.04,243.19 437.8,267.11 469.42,277.65 C582.33,315.29 619.58,295.72 737.22,277.65 C760.19,274.12 778.9834,269.1738 800.4534,262.0738" fill="none" id="Engine-to-Control" style="stroke:#181818;stroke-width:1;"/><polygon fill="#181818" points="806.15,260.19,796.3492,259.218,801.4028,261.7599,798.861,266.8135,806.15,260.19" style="stroke:#181818;stroke-width:1;"/></g><!--link Engine to Strategy--><g class="link" data-entity-1="ent0007" data-entity-2="ent0008" data-link-type="dependency" data-source-line="24" id="lnk22"><path d="M159.28,297.3 C188.36,307.94 216.9662,318.4158 246.0062,329.0558" fill="none" id="Engine-to-Strategy" style="stroke:#181818;stroke-width:1;"/><polygon fill="#181818" points="251.64,331.12,244.5655,324.2679,246.9452,329.3999,241.8133,331.7796,251.64,331.12" style="stroke:#181818;stroke-width:1;"/></g><!--link Engine to Risk--><g class="link" data-entity-1="ent0007" data-entity-2="ent0009" data-link-type="dependency" data-source-line="25" id="lnk23"><path d="M164.69,273.65 C183.55,273.65 198.24,273.65 218.1,273.65" fill="none" id="Engine-to-Risk" style="stroke:#181818;stroke-width:1;"/><polygon fill="#181818" points="224.1,273.65,215.1,269.65,219.1,273.65,215.1,277.65,224.1,273.65" style="stroke:#181818;stroke-width:1;"/></g><!--link Engine to Exchange--><g class="link" data-entity-1="ent0007" data-entity-2="ent0010" data-link-type="dependency" data-source-line="26" id="lnk24"><path d="M114.78,296.85 C138.75,323.44 181.06,367.04 224.4,395.65 C233.67,401.76 238.5899,404.7465 248.9099,409.6465" fill="none" id="Engine-to-Exchange" style="stroke:#181818;stroke-width:1;"/><polygon fill="#181818" points="254.33,412.22,247.9155,404.7464,249.8133,410.0754,244.4842,411.9732,254.33,412.22" style="stroke:#181818;stroke-width:1;"/></g><!--link Exchange to Market--><g class="link" data-entity-1="ent0010" data-entity-2="ent0014" data-link-type="dependency" data-source-line="27" id="lnk25"><path d="M401.71,458.63 C437.75,468.52 474.0733,478.4843 510.3833,488.4343" fill="none" id="Exchange-to-Market" style="stroke:#181818;stroke-width:1;"/><polygon fill="#181818" points="516.17,490.02,508.5471,483.7836,511.3478,488.6986,506.4329,491.4992,516.17,490.02" style="stroke:#181818;stroke-width:1;"/></g><!--link Engine to Notifier--><g class="link" data-entity-1="ent0007" data-entity-2="ent0012" data-link-type="dependency" data-source-line="28" id="lnk26"><path d="M138.94,250.06 C177.52,229.48 227.9056,202.593 266.4656,182.033" fill="none" id="Engine-to-Notifier" style="stroke:#181818;stroke-width:1;"/><polygon fill="#181818" points="271.76,179.21,261.9364,179.9148,267.348,181.5625,265.7003,186.9741,271.76,179.21" style="stroke:#181818;stroke-width:1;"/></g><!--link Notifier to Telegram--><g class="link" data-entity-1="ent0012" data-entity-2="ent0004" data-link-type="dependency" data-source-line="29" id="lnk27"><path d="M396.38,178 C440.12,190.46 488.2194,204.1566 529.8994,216.0266" fill="none" id="Notifier-to-Telegram" style="stroke:#181818;stroke-width:1;"/><polygon fill="#181818" points="535.67,217.67,528.1098,211.3579,530.8612,216.3005,525.9186,219.052,535.67,217.67" style="stroke:#181818;stroke-width:1;"/></g><?plantuml-src RP5FRuCm3CNl-HGMzsgdNISLsfxM_QFQTdM92r5fKXblwZJjkmyIICcq2zWlFuBzNai70N70fcu4j66gn3Yhi1B7y7WcnhvGWuosRWco7QCsjeRS2RpUPl2j02ftEZjBLlfZQgbcF0td6M07av1YRxI75NRDtY5hpyKk1GjdXLrR4d-QYZmvId_-6yPQszhOW8KofRPBADXr7PJIBqRrboUd9cKtva8QDepU4MpXnNH7pmz5ogulLTFxGx3KU1RYCC0efcZvV6-4Ii7XuPZ62VhgVoCVd9Y36Q-S6lMZD0hkiQFfHbZbmSTSLQtxq90zOHzVd09ke2ZUTx7ty1RvIABK53Gi5dVNn1Brca-CU92dCE9neevlhuKT_JDScAiGKVB5J8gnp3Hl_QoF7iSr1tLSQyP5uwOYsVGN?></g></svg>