<svg xmlns="http://www.w3.org/2000/svg" xmlns:xlink="http://www.w3.org/1999/xlink" contentStyleType="text/css" data-diagram-type="SEQUENCE" height="1266px" preserveAspectRatio="none" style="width:1070px;height:1266px;background:#FFFFFF;" version="1.1" viewBox="0 0 1070 1266" width="1070px" zoomAndPan="magnify"><?plantuml 1.2026.3beta6?><defs/><g><rect fill="none" height="1130.1953" style="stroke:#000000;stroke-width:1.5;" width="1044.8887" x="10" y="82.4297"/><rect fill="none" height="104.5313" style="stroke:#000000;stroke-width:1.5;" width="964.8887" x="50" y="496.9609"/><rect fill="none" height="590.1328" style="stroke:#000000;stroke-width:1.5;" width="1024.8887" x="20" y="615.4922"/><rect fill="none" height="502.0625" style="stroke:#000000;stroke-width:1.5;" width="1004.8887" x="30" y="696.5625"/><rect fill="none" height="237.8672" style="stroke:#000000;stroke-width:1.5;" width="984.8887" x="40" y="808.0938"/><rect fill="none" height="75.3984" style="stroke:#000000;stroke-width:1.5;" width="964.8887" x="50" y="890.4922"/><g class="participant-lifeline" data-entity-uid="part1" data-qualified-name="Loop" data-source-line="1" id="part1-lifeline"><g><title>TradingEngine</title><rect fill="#000000" fill-opacity="0.00000" height="1193.3281" width="8" x="113.7021" y="36.2969"/><line style="stroke:#181818;stroke-width:0.5;stroke-dasharray:5,5;" x1="117" x2="117" y1="36.2969" y2="1229.625"/></g></g><g class="participant-lifeline" data-entity-uid="part2" data-qualified-name="Control" data-source-line="2" id="part2-lifeline"><g><title>ControlService</title><rect fill="#000000" fill-opacity="0.00000" height="1193.3281" width="8" x="322.6284" y="36.2969"/><line style="stroke:#181818;stroke-width:0.5;stroke-dasharray:5,5;" x1="326.3008" x2="326.3008" y1="36.2969" y2="1229.625"/></g></g><g class="participant-lifeline" data-entity-uid="part3" data-qualified-name="Exchange" data-source-line="3" id="part3-lifeline"><g><title>ExchangeAdapter</title><rect fill="#000000" fill-opacity="0.00000" height="1193.3281" width="8" x="460.1768" y="36.2969"/><line style="stroke:#181818;stroke-width:0.5;stroke-dasharray:5,5;" x1="463.9561" x2="463.9561" y1="36.2969" y2="1229.625"/></g></g><g class="participant-lifeline" data-entity-uid="part4" data-qualified-name="Strategy" data-source-line="4" id="part4-lifeline"><g><title>MA Cross</title><rect fill="#000000" fill-opacity="0.00000" height="1193.3281" width="8" x="578.793" y="36.2969"/><line style="stroke:#181818;stroke-width:0.5;stroke-dasharray:5,5;" x1="582.3975" x2="582.3975" y1="36.2969" y2="1229.625"/></g></g><g class="participant-lifeline" data-entity-uid="part5" data-qualified-name="Risk" data-source-line="5" id="part5-lifeline"><g><title>Risk Layer</title><rect fill="#000000" fill-opacity="0.00000" height="1193.3281" width="8" x="671.4395" y="36.2969"/><line style="stroke:#181818;stroke-width:0.5;stroke-dasharray:5,5;" x1="675.1885" x2="675.1885" y1="36.2969" y2="1229.625"/></g></g><g class="participant-lifeline" data-entity-uid="part6" data-qualified-name="Store" data-source-line="6" id="part6-lifeline"><g><title>SQLiteStateStore</title><rect fill="#000000" fill-opacity="0.00000" height="1193.3281" width="8" x="791.7236" y="36.2969"/><line style="stroke:#181818;stroke-width:0.5;stroke-dasharray:5,5;" x1="795.6904" x2="795.6904" y1="36.2969" y2="1229.625"/></g></g><g class="participant-lifeline" data-entity-uid="part7" data-qualified-name="Notify" data-source-line="7" id="part7-lifeline"><g><title>TelegramNotifier</title><rect fill="#000000" fill-opacity="0.00000" height="1193.3281" width="8" x="934.8228" y="36.2969"/><line style="stroke:#181818;stroke-width:0.5;stroke-dasharray:5,5;" x1="938.7568" x2="938.7568" y1="36.2969" y2="1229.625"/></g></g><g class="participant participant-head" data-entity-uid="part1" data-qualified-name="Loop" data-source-line="1" id="part1-head"><rect fill="#E2E2F0" height="30.2969" rx="2.5" ry="2.5" style="stroke:#181818;stroke-width:0.5;" width="115.4043" x="60" y="5"/><text fill="#000000" font-family="sans-serif" font-size="14" lengthAdjust="spacing" textLength="101.4043" x="67" y="24.9951">TradingEngine</text></g><g class="participant participant-tail" data-entity-uid="part1" data-qualified-name="Loop" data-source-line="1" id="part1-tail"><rect fill="#E2E2F0" height="30.2969" rx="2.5" ry="2.5" style="stroke:#181818;stroke-width:0.5;" width="115.4043" x="60" y="1228.625"/><text fill="#000000" font-family="sans-serif" font-size="14" lengthAdjust="spacing" textLength="101.4043" x="67" y="1248.6201">TradingEngine</text></g><g class="participant participant-head" data-entity-uid="part2" data-qualified-name="Control" data-source-line="2" id="part2-head"><rect fill="#E2E2F0" height="30.2969" rx="2.5" ry="2.5" style="stroke:#181818;stroke-width:0.5;" width="116.6553" x="268.3008" y="5"/><text fill="#000000" font-family="sans-serif" font-size="14" lengthAdjust="spacing" textLength="102.6553" x="275.3008" y="24.9951">ControlService</text></g><g class="participant participant-tail" data-entity-uid="part2" data-qualified-name="Control" data-source-line="2" id="part2-tail"><rect fill="#E2E2F0" height="30.2969" rx="2.5" ry="2.5" style="stroke:#181818;stroke-width:0.5;" width="116.6553" x="268.3008" y="1228.625"/><text fill="#000000" font-family="sans-serif" font-size="14" lengthAdjust="spacing" textLength="102.6553" x="275.3008" y="1248.6201">ControlService</text></g><g class="participant participant-head" data-entity-uid="part3" data-qualified-name="Exchange" data-source-line="3" id="part3-head"><rect fill="#E2E2F0" height="30.2969" rx="2.5" ry="2.5" style="stroke:#181818;stroke-width:0.5;" width="138.4414" x="394.9561" y="5"/><text fill="#000000" font-family="sans-serif" font-size="14" lengthAdjust="spacing" textLength="124.4414" x="401.9561" y="24.9951">ExchangeAdapter</text></g><g class="participant participant-tail" data-entity-uid="part3" data-qualified-name="Exchange" data-source-line="3" id="part3-tail"><rect fill="#E2E2F0" height="30.2969" rx="2.5" ry="2.5" style="stroke:#181818;stroke-width:0.5;" width="138.4414" x="394.9561" y="1228.625"/><text fill="#000000" font-family="sans-serif" font-size="14" lengthAdjust="spacing" textLength="124.4414" x="401.9561" y="1248.6201">ExchangeAdapter</text></g><g class="participant participant-head" data-entity-uid="part4" data-qualified-name="Strategy" data-source-line="4" id="part4-head"><rect fill="#E2E2F0" height="30.2969" rx="2.5" ry="2.5" style="stroke:#181818;stroke-width:0.5;" width="78.791" x="543.3975" y="5"/><text fill="#000000" font-family="sans-serif" font-size="14" lengthAdjust="spacing" textLength="64.791" x="550.3975" y="24.9951">MA Cross</text></g><g class="participant participant-tail" data-entity-uid="part4" data-qualified-name="Strategy" data-source-line="4" id="part4-tail"><rect fill="#E2E2F0" height="30.2969" rx="2.5" ry="2.5" style="stroke:#181818;stroke-width:0.5;" width="78.791" x="543.3975" y="1228.625"/><text fill="#000000" font-family="sans-serif" font-size="14" lengthAdjust="spacing" textLength="64.791" x="550.3975" y="1248.6201">MA Cross</text></g><g class="participant participant-head" data-entity-uid="part5" data-qualified-name="Risk" data-source-line="5" id="part5-head"><rect fill="#E2E2F0" height="30.2969" rx="2.5" ry="2.5" style="stroke:#181818;stroke-width:0.5;" width="86.502" x="632.1885" y="5"/><text fill="#000000" font-family="sans-serif" font-size="14" lengthAdjust="spacing" textLength="72.502" x="639.1885" y="24.9951">Risk Layer</text></g><g class="participant participant-tail" data-entity-uid="part5" data-qualified-name="Risk" data-source-line="5" id="part5-tail"><rect fill="#E2E2F0" height="30.2969" rx="2.5" ry="2.5" style="stroke:#181818;stroke-width:0.5;" width="86.502" x="632.1885" y="1228.625"/><text fill="#000000" font-family="sans-serif" font-size="14" lengthAdjust="spacing" textLength="72.502" x="639.1885" y="1248.6201">Risk Layer</text></g><g class="participant participant-head" data-entity-uid="part6" data-qualified-name="Store" data-source-line="6" id="part6-head"><rect fill="#E2E2F0" height="30.2969" rx="2.5" ry="2.5" style="stroke:#181818;stroke-width:0.5;" width="134.0664" x="728.6904" y="5"/><text fill="#000000" font-family="sans-serif" font-size="14" lengthAdjust="spacing" textLength="120.0664" x="735.6904" y="24.9951">SQLiteStateStore</text></g><g class="participant participant-tail" data-entity-uid="part6" data-qualified-name="Store" data-source-line="6" id="part6-tail"><rect fill="#E2E2F0" height="30.2969" rx="2.5" ry="2.5" style="stroke:#181818;stroke-width:0.5;" width="134.0664" x="728.6904" y="1228.625"/><text fill="#000000" font-family="sans-serif" font-size="14" lengthAdjust="spacing" textLength="120.0664" x="735.6904" y="1248.6201">SQLiteStateStore</text></g><g class="participant participant-head" data-entity-uid="part7" data-qualified-name="Notify" data-source-line="7" id="part7-head"><rect fill="#E2E2F0" height="30.2969" rx="2.5" ry="2.5" style="stroke:#181818;stroke-width:0.5;" width="132.1318" x="872.7568" y="5"/><text fill="#000000" font-family="sans-serif" font-size="14" lengthAdjust="spacing" textLength="118.1318" x="879.7568" y="24.9951">TelegramNotifier</text></g><g class="participant participant-tail" data-entity-uid="part7" data-qualified-name="Notify" data-source-line="7" id="part7-tail"><rect fill="#E2E2F0" height="30.2969" rx="2.5" ry="2.5" style="stroke:#181818;stroke-width:0.5;" width="132.1318" x="872.7568" y="1228.625"/><text fill="#000000" font-family="sans-serif" font-size="14" lengthAdjust="spacing" textLength="118.1318" x="879.7568" y="1248.6201">TelegramNotifier</text></g><g class="message" data-entity-1="part1" data-entity-2="part2" data-source-line="9" id="msg1"><polygon fill="#181818" points="314.6284,63.4297,324.6284,67.4297,314.6284,71.4297,318.6284,67.4297" style="stroke:#181818;stroke-width:1;"/><line style="stroke:#181818;stroke-width:1;" x1="117.7021" x2="320.6284" y1="67.4297" y2="67.4297"/><text fill="#000000" font-family="sans-serif" font-size="13" lengthAdjust="spacing" textLength="77.9365" x="124.7021" y="62.3638">get_status()</text></g><path d="M10,82.4297 L74.4429,82.4297 L74.4429,89.5625 L64.4429,99.5625 L10,99.5625 L10,82.4297" fill="#EEEEEE" style="stroke:#000000;stroke-width:1.5;"/><rect fill="none" height="1130.1953" style="stroke:#000000;stroke-width:1.5;" width="1044.8887" x="10" y="82.4297"/><text fill="#000000" font-family="sans-serif" font-size="13" font-weight="700" lengthAdjust="spacing" textLength="19.4429" x="25" y="95.4966">alt</text><text fill="#000000" font-family="sans-serif" font-size="11" font-weight="700" lengthAdjust="spacing" textLength="79.5835" x="89.4429" y="94.6401">[bot paused]</text><g class="message" data-entity-1="part1" data-entity-2="part1" data-source-line="11" id="msg2"><line style="stroke:#181818;stroke-width:1;stroke-dasharray:2,2;" x1="117.7021" x2="159.7021" y1="120.6953" y2="120.6953"/><line style="stroke:#181818;stroke-width:1;stroke-dasharray:2,2;" x1="159.7021" x2="159.7021" y1="120.6953" y2="133.6953"/><line style="stroke:#181818;stroke-width:1;stroke-dasharray:2,2;" x1="118.7021" x2="159.7021" y1="133.6953" y2="133.6953"/><polygon fill="#181818" points="128.7021,129.6953,118.7021,133.6953,128.7021,137.6953,124.7021,133.6953" style="stroke:#181818;stroke-width:1;"/><text fill="#000000" font-family="sans-serif" font-size="13" lengthAdjust="spacing" textLength="40.2632" x="124.7021" y="115.6294">return</text></g><line style="stroke:#000000;stroke-width:1;stroke-dasharray:2,2;" x1="10" x2="1054.8887" y1="142.6953" y2="142.6953"/><text fill="#000000" font-family="sans-serif" font-size="11" font-weight="700" lengthAdjust="spacing" textLength="82.9673" x="15" y="152.9058">[bot running]</text><g class="message" data-entity-1="part1" data-entity-2="part2" data-source-line="13" id="msg3"><polygon fill="#181818" points="314.6284,173.6328,324.6284,177.6328,314.6284,181.6328,318.6284,177.6328" style="stroke:#181818;stroke-width:1;"/><line style="stroke:#181818;stroke-width:1;" x1="117.7021" x2="320.6284" y1="177.6328" y2="177.6328"/><text fill="#000000" font-family="sans-serif" font-size="13" lengthAdjust="spacing" textLength="100.4707" x="124.7021" y="172.5669">set_heartbeat()</text></g><g class="message" data-entity-1="part2" data-entity-2="part6" data-source-line="14" id="msg4"><polygon fill="#181818" points="783.7236,202.7656,793.7236,206.7656,783.7236,210.7656,787.7236,206.7656" style="stroke:#181818;stroke-width:1;"/><line style="stroke:#181818;stroke-width:1;" x1="326.6284" x2="789.7236" y1="206.7656" y2="206.7656"/><text fill="#000000" font-family="sans-serif" font-size="13" lengthAdjust="spacing" textLength="130.8442" x="333.6284" y="201.6997">save_engine_state()</text></g><g class="message" data-entity-1="part1" data-entity-2="part3" data-source-line="15" id="msg5"><polygon fill="#181818" points="452.1768,231.8984,462.1768,235.8984,452.1768,239.8984,456.1768,235.8984" style="stroke:#181818;stroke-width:1;"/><line style="stroke:#181818;stroke-width:1;" x1="117.7021" x2="458.1768" y1="235.8984" y2="235.8984"/><text fill="#000000" font-family="sans-serif" font-size="13" lengthAdjust="spacing" textLength="93.7168" x="124.7021" y="230.8325">sync(symbols)</text></g><g class="message" data-entity-1="part1" data-entity-2="part3" data-source-line="16" id="msg6"><polygon fill="#181818" points="452.1768,261.0313,462.1768,265.0313,452.1768,269.0313,456.1768,265.0313" style="stroke:#181818;stroke-width:1;"/><line style="stroke:#181818;stroke-width:1;" x1="117.7021" x2="458.1768" y1="265.0313" y2="265.0313"/><text fill="#000000" font-family="sans-serif" font-size="13" lengthAdjust="spacing" textLength="107.9673" x="124.7021" y="259.9653">fetch_positions()</text></g><g class="message" data-entity-1="part1" data-entity-2="part3" data-source-line="17" id="msg7"><polygon fill="#181818" points="452.1768,290.1641,462.1768,294.1641,452.1768,298.1641,456.1768,294.1641" style="stroke:#181818;stroke-width:1;"/><line style="stroke:#181818;stroke-width:1;" x1="117.7021" x2="458.1768" y1="294.1641" y2="294.1641"/><text fill="#000000" font-family="sans-serif" font-size="13" lengthAdjust="spacing" textLength="130.311" x="124.7021" y="289.0981">fetch_open_orders()</text></g><g class="message" data-entity-1="part1" data-entity-2="part2" data-source-line="18" id="msg8"><polygon fill="#181818" points="314.6284,319.2969,324.6284,323.2969,314.6284,327.2969,318.6284,323.2969" style="stroke:#181818;stroke-width:1;"/><line style="stroke:#181818;stroke-width:1;" x1="117.7021" x2="320.6284" y1="323.2969" y2="323.2969"/><text fill="#000000" font-family="sans-serif" font-size="13" lengthAdjust="spacing" textLength="144.2632" x="124.7021" y="318.231">persist_engine_state()</text></g><g class="message" data-entity-1="part2" data-entity-2="part6" data-source-line="19" id="msg9"><polygon fill="#181818" points="783.7236,348.4297,793.7236,352.4297,783.7236,356.4297,787.7236,352.4297" style="stroke:#181818;stroke-width:1;"/><line style="stroke:#181818;stroke-width:1;" x1="326.6284" x2="789.7236" y1="352.4297" y2="352.4297"/><text fill="#000000" font-family="sans-serif" font-size="13" lengthAdjust="spacing" textLength="130.8442" x="333.6284" y="347.3638">save_engine_state()</text></g><g class="message" data-entity-1="part1" data-entity-2="part3" data-source-line="20" id="msg10"><polygon fill="#181818" points="452.1768,377.5625,462.1768,381.5625,452.1768,385.5625,456.1768,381.5625" style="stroke:#181818;stroke-width:1;"/><line style="stroke:#181818;stroke-width:1;" x1="117.7021" x2="458.1768" y1="381.5625" y2="381.5625"/><text fill="#000000" font-family="sans-serif" font-size="13" lengthAdjust="spacing" textLength="144.9233" x="124.7021" y="376.4966">fetch_balance_quote()</text></g><g class="message" data-entity-1="part1" data-entity-2="part2" data-source-line="21" id="msg11"><polygon fill="#181818" points="314.6284,406.6953,324.6284,410.6953,314.6284,414.6953,318.6284,410.6953" style="stroke:#181818;stroke-width:1;"/><line style="stroke:#181818;stroke-width:1;" x1="117.7021" x2="320.6284" y1="410.6953" y2="410.6953"/><text fill="#000000" font-family="sans-serif" font-size="13" lengthAdjust="spacing" textLength="144.2632" x="124.7021" y="405.6294">persist_engine_state()</text></g><g class="message" data-entity-1="part2" data-entity-2="part6" data-source-line="22" id="msg12"><polygon fill="#181818" points="783.7236,435.8281,793.7236,439.8281,783.7236,443.8281,787.7236,439.8281" style="stroke:#181818;stroke-width:1;"/><line style="stroke:#181818;stroke-width:1;" x1="326.6284" x2="789.7236" y1="439.8281" y2="439.8281"/><text fill="#000000" font-family="sans-serif" font-size="13" lengthAdjust="spacing" textLength="130.8442" x="333.6284" y="434.7622">save_engine_state()</text></g><g class="message" data-entity-1="part1" data-entity-2="part1" data-source-line="23" id="msg13"><line style="stroke:#181818;stroke-width:1;" x1="117.7021" x2="159.7021" y1="468.9609" y2="468.9609"/><line style="stroke:#181818;stroke-width:1;" x1="159.7021" x2="159.7021" y1="468.9609" y2="481.9609"/><line style="stroke:#181818;stroke-width:1;" x1="118.7021" x2="159.7021" y1="481.9609" y2="481.9609"/><polygon fill="#181818" points="128.7021,477.9609,118.7021,481.9609,128.7021,485.9609,124.7021,481.9609" style="stroke:#181818;stroke-width:1;"/><text fill="#000000" font-family="sans-serif" font-size="13" lengthAdjust="spacing" textLength="121.7988" x="124.7021" y="463.895">protect_positions()</text></g><path d="M50,496.9609 L114.4429,496.9609 L114.4429,504.0938 L104.4429,514.0938 L50,514.0938 L50,496.9609" fill="#EEEEEE" style="stroke:#000000;stroke-width:1.5;"/><rect fill="none" height="104.5313" style="stroke:#000000;stroke-width:1.5;" width="964.8887" x="50" y="496.9609"/><text fill="#000000" font-family="sans-serif" font-size="13" font-weight="700" lengthAdjust="spacing" textLength="19.4429" x="65" y="510.0278">alt</text><text fill="#000000" font-family="sans-serif" font-size="11" font-weight="700" lengthAdjust="spacing" textLength="172.8311" x="129.4429" y="509.1714">[stop loss or take profit hit]</text><g class="message" data-entity-1="part1" data-entity-2="part3" data-source-line="25" id="msg14"><polygon fill="#181818" points="452.1768,531.2266,462.1768,535.2266,452.1768,539.2266,456.1768,535.2266" style="stroke:#181818;stroke-width:1;"/><line style="stroke:#181818;stroke-width:1;" x1="117.7021" x2="458.1768" y1="535.2266" y2="535.2266"/><text fill="#000000" font-family="sans-serif" font-size="13" lengthAdjust="spacing" textLength="133.2881" x="124.7021" y="530.1606">create_market_sell()</text></g><g class="message" data-entity-1="part1" data-entity-2="part2" data-source-line="26" id="msg15"><polygon fill="#181818" points="314.6284,560.3594,324.6284,564.3594,314.6284,568.3594,318.6284,564.3594" style="stroke:#181818;stroke-width:1;"/><line style="stroke:#181818;stroke-width:1;" x1="117.7021" x2="320.6284" y1="564.3594" y2="564.3594"/><text fill="#000000" font-family="sans-serif" font-size="13" lengthAdjust="spacing" textLength="184.9263" x="124.7021" y="559.2935">update daily_pnl / last_trade</text></g><g class="message" data-entity-1="part1" data-entity-2="part7" data-source-line="27" id="msg16"><polygon fill="#181818" points="926.8228,589.4922,936.8228,593.4922,926.8228,597.4922,930.8228,593.4922" style="stroke:#181818;stroke-width:1;"/><line style="stroke:#181818;stroke-width:1;" x1="117.7021" x2="932.8228" y1="593.4922" y2="593.4922"/><text fill="#000000" font-family="sans-serif" font-size="13" lengthAdjust="spacing" textLength="71.4238" x="124.7021" y="588.4263">send(alert)</text></g><path d="M20,615.4922 L84.4429,615.4922 L84.4429,622.625 L74.4429,632.625 L20,632.625 L20,615.4922" fill="#EEEEEE" style="stroke:#000000;stroke-width:1.5;"/><rect fill="none" height="590.1328" style="stroke:#000000;stroke-width:1.5;" width="1024.8887" x="20" y="615.4922"/><text fill="#000000" font-family="sans-serif" font-size="13" font-weight="700" lengthAdjust="spacing" textLength="19.4429" x="35" y="628.5591">alt</text><text fill="#000000" font-family="sans-serif" font-size="11" font-weight="700" lengthAdjust="spacing" textLength="145.5029" x="99.4429" y="627.7026">[auto_trading disabled]</text><g class="message" data-entity-1="part1" data-entity-2="part1" data-source-line="30" id="msg17"><line style="stroke:#181818;stroke-width:1;stroke-dasharray:2,2;" x1="117.7021" x2="159.7021" y1="653.7578" y2="653.7578"/><line style="stroke:#181818;stroke-width:1;stroke-dasharray:2,2;" x1="159.7021" x2="159.7021" y1="653.7578" y2="666.7578"/><line style="stroke:#181818;stroke-width:1;stroke-dasharray:2,2;" x1="118.7021" x2="159.7021" y1="666.7578" y2="666.7578"/><polygon fill="#181818" points="128.7021,662.7578,118.7021,666.7578,128.7021,670.7578,124.7021,666.7578" style="stroke:#181818;stroke-width:1;"/><text fill="#000000" font-family="sans-serif" font-size="13" lengthAdjust="spacing" textLength="40.2632" x="124.7021" y="648.6919">return</text></g><line style="stroke:#000000;stroke-width:1;stroke-dasharray:2,2;" x1="20" x2="1044.8887" y1="675.7578" y2="675.7578"/><text fill="#000000" font-family="sans-serif" font-size="11" font-weight="700" lengthAdjust="spacing" textLength="142.6025" x="25" y="685.9683">[auto_trading enabled]</text><path d="M30,696.5625 L106.624,696.5625 L106.624,703.6953 L96.624,713.6953 L30,713.6953 L30,696.5625" fill="#EEEEEE" style="stroke:#000000;stroke-width:1.5;"/><rect fill="none" height="502.0625" style="stroke:#000000;stroke-width:1.5;" width="1004.8887" x="30" y="696.5625"/><text fill="#000000" font-family="sans-serif" font-size="13" font-weight="700" lengthAdjust="spacing" textLength="31.624" x="45" y="709.6294">loop</text><text fill="#000000" font-family="sans-serif" font-size="11" font-weight="700" lengthAdjust="spacing" textLength="87.5005" x="121.624" y="708.7729">[each symbol]</text><g class="message" data-entity-1="part1" data-entity-2="part3" data-source-line="33" id="msg18"><polygon fill="#181818" points="452.1768,730.8281,462.1768,734.8281,452.1768,738.8281,456.1768,734.8281" style="stroke:#181818;stroke-width:1;"/><line style="stroke:#181818;stroke-width:1;" x1="117.7021" x2="458.1768" y1="734.8281" y2="734.8281"/><text fill="#000000" font-family="sans-serif" font-size="13" lengthAdjust="spacing" textLength="131.2949" x="124.7021" y="729.7622">fetch_ohlcv(symbol)</text></g><g class="message" data-entity-1="part1" data-entity-2="part4" data-source-line="34" id="msg19"><polygon fill="#181818" points="570.793,759.9609,580.793,763.9609,570.793,767.9609,574.793,763.9609" style="stroke:#181818;stroke-width:1;"/><line style="stroke:#181818;stroke-width:1;" x1="117.7021" x2="576.793" y1="763.9609" y2="763.9609"/><text fill="#000000" font-family="sans-serif" font-size="13" lengthAdjust="spacing" textLength="154.248" x="124.7021" y="758.895">generate_signal(closes)</text></g><g class="message" data-entity-1="part4" data-entity-2="part1" data-source-line="35" id="msg20"><polygon fill="#181818" points="128.7021,789.0938,118.7021,793.0938,128.7021,797.0938,124.7021,793.0938" style="stroke:#181818;stroke-width:1;"/><line style="stroke:#181818;stroke-width:1;stroke-dasharray:2,2;" x1="122.7021" x2="581.793" y1="793.0938" y2="793.0938"/><text fill="#000000" font-family="sans-serif" font-size="13" lengthAdjust="spacing" textLength="119.8755" x="134.7021" y="788.0278">BUY / SELL / HOLD</text></g><path d="M40,808.0938 L104.4429,808.0938 L104.4429,815.2266 L94.4429,825.2266 L40,825.2266 L40,808.0938" fill="#EEEEEE" style="stroke:#000000;stroke-width:1.5;"/><rect fill="none" height="237.8672" style="stroke:#000000;stroke-width:1.5;" width="984.8887" x="40" y="808.0938"/><text fill="#000000" font-family="sans-serif" font-size="13" font-weight="700" lengthAdjust="spacing" textLength="19.4429" x="55" y="821.1606">alt</text><text fill="#000000" font-family="sans-serif" font-size="11" font-weight="700" lengthAdjust="spacing" textLength="170.0596" x="119.4429" y="820.3042">[BUY and no open position]</text><g class="message" data-entity-1="part1" data-entity-2="part3" data-source-line="37" id="msg21"><polygon fill="#181818" points="452.1768,842.3594,462.1768,846.3594,452.1768,850.3594,456.1768,846.3594" style="stroke:#181818;stroke-width:1;"/><line style="stroke:#181818;stroke-width:1;" x1="117.7021" x2="458.1768" y1="846.3594" y2="846.3594"/><text fill="#000000" font-family="sans-serif" font-size="13" lengthAdjust="spacing" textLength="175.2905" x="124.7021" y="841.2935">fetch_symbol_rule(symbol)</text></g><g class="message" data-entity-1="part1" data-entity-2="part5" data-source-line="38" id="msg22"><polygon fill="#181818" points="663.4395,871.4922,673.4395,875.4922,663.4395,879.4922,667.4395,875.4922" style="stroke:#181818;stroke-width:1;"/><line style="stroke:#181818;stroke-width:1;" x1="117.7021" x2="669.4395" y1="875.4922" y2="875.4922"/><text fill="#000000" font-family="sans-serif" font-size="13" lengthAdjust="spacing" textLength="229.5566" x="124.7021" y="870.4263">sized_quantity(balance, price, rule)</text></g><path d="M50,890.4922 L114.4429,890.4922 L114.4429,897.625 L104.4429,907.625 L50,907.625 L50,890.4922" fill="#EEEEEE" style="stroke:#000000;stroke-width:1.5;"/><rect fill="none" height="75.3984" style="stroke:#000000;stroke-width:1.5;" width="964.8887" x="50" y="890.4922"/><text fill="#000000" font-family="sans-serif" font-size="13" font-weight="700" lengthAdjust="spacing" textLength="19.4429" x="65" y="903.5591">alt</text><text fill="#000000" font-family="sans-serif" font-size="11" font-weight="700" lengthAdjust="spacing" textLength="96.3091" x="129.4429" y="902.7026">[valid quantity]</text><g class="message" data-entity-1="part1" data-entity-2="part3" data-source-line="40" id="msg23"><polygon fill="#181818" points="452.1768,924.7578,462.1768,928.7578,452.1768,932.7578,456.1768,928.7578" style="stroke:#181818;stroke-width:1;"/><line style="stroke:#181818;stroke-width:1;" x1="117.7021" x2="458.1768" y1="928.7578" y2="928.7578"/><text fill="#000000" font-family="sans-serif" font-size="13" lengthAdjust="spacing" textLength="274.5171" x="124.7021" y="923.6919">create_market_buy() or create_limit_buy()</text></g><g class="message" data-entity-1="part1" data-entity-2="part7" data-source-line="41" id="msg24"><polygon fill="#181818" points="926.8228,953.8906,936.8228,957.8906,926.8228,961.8906,930.8228,957.8906" style="stroke:#181818;stroke-width:1;"/><line style="stroke:#181818;stroke-width:1;" x1="117.7021" x2="932.8228" y1="957.8906" y2="957.8906"/><text fill="#000000" font-family="sans-serif" font-size="13" lengthAdjust="spacing" textLength="106.0122" x="124.7021" y="952.8247">send(last_trade)</text></g><line style="stroke:#000000;stroke-width:1;stroke-dasharray:2,2;" x1="40" x2="1024.8887" y1="973.8906" y2="973.8906"/><text fill="#000000" font-family="sans-serif" font-size="11" font-weight="700" lengthAdjust="spacing" textLength="180.646" x="45" y="984.1011">[SELL and has open position]</text><g class="message" data-entity-1="part1" data-entity-2="part3" data-source-line="44" id="msg25"><polygon fill="#181818" points="452.1768,1004.8281,462.1768,1008.8281,452.1768,1012.8281,456.1768,1008.8281" style="stroke:#181818;stroke-width:1;"/><line style="stroke:#181818;stroke-width:1;" x1="117.7021" x2="458.1768" y1="1008.8281" y2="1008.8281"/><text fill="#000000" font-family="sans-serif" font-size="13" lengthAdjust="spacing" textLength="133.2881" x="124.7021" y="1003.7622">create_market_sell()</text></g><g class="message" data-entity-1="part1" data-entity-2="part7" data-source-line="45" id="msg26"><polygon fill="#181818" points="926.8228,1033.9609,936.8228,1037.9609,926.8228,1041.9609,930.8228,1037.9609" style="stroke:#181818;stroke-width:1;"/><line style="stroke:#181818;stroke-width:1;" x1="117.7021" x2="932.8228" y1="1037.9609" y2="1037.9609"/><text fill="#000000" font-family="sans-serif" font-size="13" lengthAdjust="spacing" textLength="106.0122" x="124.7021" y="1032.895">send(last_trade)</text></g><g class="message" data-entity-1="part1" data-entity-2="part3" data-source-line="47" id="msg27"><polygon fill="#181818" points="452.1768,1070.0938,462.1768,1074.0938,452.1768,1078.0938,456.1768,1074.0938" style="stroke:#181818;stroke-width:1;"/><line style="stroke:#181818;stroke-width:1;" x1="117.7021" x2="458.1768" y1="1074.0938" y2="1074.0938"/><text fill="#000000" font-family="sans-serif" font-size="13" lengthAdjust="spacing" textLength="39.9966" x="124.7021" y="1069.0278">sync()</text></g><g class="message" data-entity-1="part1" data-entity-2="part3" data-source-line="48" id="msg28"><polygon fill="#181818" points="452.1768,1099.2266,462.1768,1103.2266,452.1768,1107.2266,456.1768,1103.2266" style="stroke:#181818;stroke-width:1;"/><line style="stroke:#181818;stroke-width:1;" x1="117.7021" x2="458.1768" y1="1103.2266" y2="1103.2266"/><text fill="#000000" font-family="sans-serif" font-size="13" lengthAdjust="spacing" textLength="107.9673" x="124.7021" y="1098.1606">fetch_positions()</text></g><g class="message" data-entity-1="part1" data-entity-2="part3" data-source-line="49" id="msg29"><polygon fill="#181818" points="452.1768,1128.3594,462.1768,1132.3594,452.1768,1136.3594,456.1768,1132.3594" style="stroke:#181818;stroke-width:1;"/><line style="stroke:#181818;stroke-width:1;" x1="117.7021" x2="458.1768" y1="1132.3594" y2="1132.3594"/><text fill="#000000" font-family="sans-serif" font-size="13" lengthAdjust="spacing" textLength="130.311" x="124.7021" y="1127.2935">fetch_open_orders()</text></g><g class="message" data-entity-1="part1" data-entity-2="part2" data-source-line="50" id="msg30"><polygon fill="#181818" points="314.6284,1157.4922,324.6284,1161.4922,314.6284,1165.4922,318.6284,1161.4922" style="stroke:#181818;stroke-width:1;"/><line style="stroke:#181818;stroke-width:1;" x1="117.7021" x2="320.6284" y1="1161.4922" y2="1161.4922"/><text fill="#000000" font-family="sans-serif" font-size="13" lengthAdjust="spacing" textLength="144.2632" x="124.7021" y="1156.4263">persist_engine_state()</text></g><g class="message" data-entity-1="part2" data-entity-2="part6" data-source-line="51" id="msg31"><polygon fill="#181818" points="783.7236,1186.625,793.7236,1190.625,783.7236,1194.625,787.7236,1190.625" style="stroke:#181818;stroke-width:1;"/><line style="stroke:#181818;stroke-width:1;" x1="326.6284" x2="789.7236" y1="1190.625" y2="1190.625"/><text fill="#000000" font-family="sans-serif" font-size="13" lengthAdjust="spacing" textLength="130.8442" x="333.6284" y="1185.5591">save_engine_state()</text></g><?plantuml-src hPHHZzCm3CVVzociU-ea4E_tW7GSatWO8DZnm5FbjLuRBKjAuawKJu-Tjjiwjjs1cBGsJNvsRESVDnZO5AP1n_0Ki3IkMhZAE0ACiFI-cJKdnADt7BnTKTYR8Y73p8HQ_2ngT1KzbDWm1SN6gGbtz_417eEFyKwH5GTaghefyjN4BIonev0W_Pm0gozBmxHYr8SFr7kImOHw8ajLmDqdpsPZ-f3Ik9lDD4bu_NRCv1uguZoAmpPcynbQXhLdQB2DLCu0Ubnu7Tn386w3cv6DbBZGEYSrF80dVgFuhKcYMXEok8PnIQaKip2ufvpI0QGOA76Zgx6AmdMko6AtMtiRBnCRugBE6nyD6-zYTelo3RdSXvB2b3k4tiYAYVndPF-UGR_p6YswWl8VhJyZ___U_O4rGNOg-AmoUioHXRCYH_016BUaxCOmr8O5kPH44UGeATzXsAfeoDhaxK8MRLCA2IKQs-MDi_06B4fM8lgI9YQzBbKkhipGKc1rAHz3cDYoJsOYCoXDnBLDmhmcJR5LSKxCo1sjh5eH5ZNqUagJDxHIss8_I6z-nevNME-G8ntdqLGERLP8NIcE_CYT1FlkstSfoMgnNChhm-Vb-m7LZ7KDNGdEWoeLngCRaEknzb7ceRLq5l7HHZkA5Dlyeb9KACt2S9SDidmb2Z3wKWz7KurfZzQKC1eSbfuNoRhjihagR9YsPcU6sGjU9c8u2kQ8zhf88ptbL42jLIqTxgN5kghYluZa6CULPZL_HbVJ-tXJWMVTwk9zkzerzFVIpZ6cfK_v_mO0?></g></svg>