<svg xmlns="http://www.w3.org/2000/svg" xmlns:xlink="http://www.w3.org/1999/xlink" contentStyleType="text/css" data-diagram-type="STATE" height="491px" preserveAspectRatio="none" style="width:293px;height:491px;background:#FFFFFF;" version="1.1" viewBox="0 0 293 491" width="293px" zoomAndPan="magnify"><?plantuml 1.2026.3beta6?><defs/><g><path d="M19.5,7 L265.5729,7 A12.5,12.5 0 0 1 278.0729,19.5 L278.0729,33.2969 L7,33.2969 L7,19.5 A12.5,12.5 0 0 1 19.5,7" fill="#F1F1F1"/><rect fill="none" height="470.5969" rx="12.5" ry="12.5" style="stroke:#181818;stroke-width:0.5;" width="271.0729" x="7" y="7"/><line style="stroke:#181818;stroke-width:0.5;" x1="7" x2="278.0729" y1="33.2969" y2="33.2969"/><text fill="#000000" font-family="sans-serif" font-size="14" lengthAdjust="spacing" textLength="87.2129" x="98.93" y="24.9951">Bot Runtime</text><path d="M31.5,101.2969 L234.7203,101.2969 A12.5,12.5 0 0 1 247.2203,113.7969 L247.2203,127.5938 L19,127.5938 L19,113.7969 A12.5,12.5 0 0 1 31.5,101.2969" fill="#F1F1F1"/><rect fill="none" height="260.2969" rx="12.5" ry="12.5" style="stroke:#181818;stroke-width:0.5;" width="228.2203" x="19" y="101.2969"/><line style="stroke:#181818;stroke-width:0.5;" x1="19" x2="247.2203" y1="127.5938" y2="127.5938"/><text fill="#000000" font-family="sans-serif" font-size="14" lengthAdjust="spacing" textLength="57.9961" x="104.1121" y="119.292">Running</text><g class="start_entity" data-qualified-name="BotRuntime.Running..start.Running" data-source-line="7" id="ent0007"><ellipse cx="92.8556" cy="148.5938" fill="#222222" rx="10" ry="10" style="stroke:#222222;stroke-width:1;"/></g><g class="entity" data-qualified-name="BotRuntime.Running.Manual" id="ent0008"><rect fill="#F1F1F1" height="50" rx="12.5" ry="12.5" style="stroke:#181818;stroke-width:0.5;" width="70.873" x="57.4156" y="195.5938"/><line style="stroke:#181818;stroke-width:0.5;" x1="57.4156" x2="128.2886" y1="221.8906" y2="221.8906"/><text fill="#000000" font-family="sans-serif" font-size="14" lengthAdjust="spacing" textLength="50.873" x="67.4156" y="213.5889">Manual</text></g><g class="entity" data-qualified-name="BotRuntime.Running.AutoTrading" id="ent0010"><rect fill="#F1F1F1" height="50" rx="12.5" ry="12.5" style="stroke:#181818;stroke-width:0.5;" width="105.9277" x="39.8856" y="298.5938"/><line style="stroke:#181818;stroke-width:0.5;" x1="39.8856" x2="145.8133" y1="324.8906" y2="324.8906"/><text fill="#000000" font-family="sans-serif" font-size="14" lengthAdjust="spacing" textLength="85.9277" x="49.8856" y="316.5889">AutoTrading</text></g><!--link *start*Running to Manual--><g class="link" data-entity-1="ent0007" data-entity-2="ent0008" data-link-type="dependency" data-source-line="7" id="lnk9"><path d="M92.8556,159.0338 C92.8556,168.2938 92.8556,176.7838 92.8556,189.2738" fill="none" id="*start*Running-to-Manual" style="stroke:#181818;stroke-width:1;"/><polygon fill="#181818" points="92.8556,195.2738,96.8556,186.2738,92.8556,190.2738,88.8556,186.2738,92.8556,195.2738" style="stroke:#181818;stroke-width:1;"/></g><!--link Manual to AutoTrading--><g class="link" data-entity-1="ent0008" data-entity-2="ent0010" data-link-type="dependency" data-source-line="8" id="lnk11"><path d="M57.1656,240.6338 C49.0156,246.8037 41.4156,254.4638 36.8556,263.5938 C30.4056,276.4738 33.4274,284.5738 44.8774,294.3238" fill="none" id="Manual-to-AutoTrading" style="stroke:#181818;stroke-width:1;"/><polygon fill="#181818" points="49.4456,298.2138,45.1866,289.3334,45.6388,294.9721,40,295.4243,49.4456,298.2138" style="stroke:#181818;stroke-width:1;"/><text fill="#000000" font-family="sans-serif" font-size="13" lengthAdjust="spacing" textLength="89.9653" x="37.8556" y="276.6606">enable_auto()</text></g><!--link AutoTrading to Manual--><g class="link" data-entity-1="ent0010" data-entity-2="ent0008" data-link-type="dependency" data-source-line="9" id="lnk12"><path d="M118.8156,298.3638 C126.6856,288.0738 132.2356,275.6838 127.8556,263.5938 C125.5956,257.3438 125.5768,256.1502 121.4868,250.7702" fill="none" id="AutoTrading-to-Manual" style="stroke:#181818;stroke-width:1;"/><polygon fill="#181818" points="117.8556,245.9938,120.118,255.5792,120.8816,249.9741,126.4866,250.7377,117.8556,245.9938" style="stroke:#181818;stroke-width:1;"/><text fill="#000000" font-family="sans-serif" font-size="13" lengthAdjust="spacing" textLength="92.3647" x="129.8556" y="276.6606">disable_auto()</text></g><g class="start_entity" data-qualified-name="BotRuntime..start.BotRuntime" data-source-line="2" id="ent0002"><ellipse cx="133.11" cy="54.2969" fill="#222222" rx="10" ry="10" style="stroke:#222222;stroke-width:1;"/></g><g class="entity" data-qualified-name="BotRuntime.Paused" id="ent0004"><rect fill="#F1F1F1" height="50" rx="12.5" ry="12.5" style="stroke:#181818;stroke-width:0.5;" width="70.6885" x="97.77" y="414.5969"/><line style="stroke:#181818;stroke-width:0.5;" x1="97.77" x2="168.4585" y1="440.8938" y2="440.8938"/><text fill="#000000" font-family="sans-serif" font-size="14" lengthAdjust="spacing" textLength="50.6885" x="107.77" y="432.592">Paused</text></g><!--link *start*BotRuntime to Running--><g class="link" data-entity-1="ent0002" data-entity-2="ent0003" data-link-type="dependency" data-source-line="2" id="lnk3"><path d="M133.11,64.7169 C133.11,72.9569 133.11,79.9769 133.11,95.1769" fill="none" id="*start*BotRuntime-to-Running" style="stroke:#181818;stroke-width:1;"/><polygon fill="#181818" points="133.11,101.1769,137.11,92.1769,133.11,96.1769,129.11,92.1769,133.11,101.1769" style="stroke:#181818;stroke-width:1;"/></g><!--link Running to Paused--><g class="link" data-entity-1="ent0003" data-entity-2="ent0004" data-link-type="dependency" data-source-line="3" id="lnk5"><path d="M75.63,361.8869 C75.73,373.7869 77.95,385.5269 83.11,396.5969 C86.41,403.6869 87.2081,405.8869 92.9781,411.3369" fill="none" id="Running-to-Paused" style="stroke:#181818;stroke-width:1;"/><polygon fill="#181818" points="97.34,415.4569,93.5438,406.369,93.7051,412.0236,88.0506,412.1848,97.34,415.4569" style="stroke:#181818;stroke-width:1;"/><text fill="#000000" font-family="sans-serif" font-size="13" lengthAdjust="spacing" textLength="77.1748" x="84.11" y="392.6638">pause_bot()</text></g><!--link Paused to Running--><g class="link" data-entity-1="ent0004" data-entity-2="ent0003" data-link-type="dependency" data-source-line="4" id="lnk6"><path d="M153.58,414.1369 C157.09,408.6769 160.21,402.6869 162.11,396.5969 C165.6,385.4069 167.0982,379.6447 167.4182,367.7847" fill="none" id="Paused-to-Running" style="stroke:#181818;stroke-width:1;"/><polygon fill="#181818" points="167.58,361.7869,163.3387,370.6757,167.4451,366.7851,171.3358,370.8915,167.58,361.7869" style="stroke:#181818;stroke-width:1;"/><text fill="#000000" font-family="sans-serif" font-size="13" lengthAdjust="spacing" textLength="86.9629" x="166.11" y="392.6638">resume_bot()</text></g><?plantuml-src LOr12i9034NtFKNeIeLUm8MWUq74dKX9cI03RKQQp4fwTpFJARMxdvUNV55KWleI5EwHrGzK0mhON4RuLW3FmmkQvfGKzlmsKbAcDun23exmIQ7jWkxsfXJyTsVAI1A7nJ59Sl-oJrrhsnKvOf_H73CzHmsF4TtyZnYxdbeqc4jXir-_cEgyRDsfcdu0?></g></svg>