<svg xmlns="http://www.w3.org/2000/svg" xmlns:xlink="http://www.w3.org/1999/xlink" contentStyleType="text/css" data-diagram-type="DESCRIPTION" height="694px" preserveAspectRatio="none" style="width:224px;height:694px;background:#FFFFFF;" version="1.1" viewBox="0 0 224 694" width="224px" zoomAndPan="magnify"><?plantuml 1.2026.3beta6?><defs/><g><!--cluster Trading Bot V5--><g class="cluster" data-qualified-name="Trading Bot V5" data-source-line="7" id="ent0006"><rect fill="none" height="590" rx="2.5" ry="2.5" style="stroke:#181818;stroke-width:1;" width="134" x="76.5" y="7"/><text fill="#000000" font-family="sans-serif" font-size="14" font-weight="700" lengthAdjust="spacing" textLength="118.0156" x="84.4922" y="21.9951">Trading Bot V5</text></g><!--entity UC1--><g class="entity" data-qualified-name="Trading Bot V5.UC1" data-source-line="8" id="ent0007"><ellipse cx="143.5" cy="168" fill="#F1F1F1" rx="3" ry="3" style="stroke:#181818;stroke-width:0.5;"/><text fill="#000000" font-family="sans-serif" font-size="14" lengthAdjust="spacing" textLength="0" x="143.5" y="164.5">Xem tr&#7841;ng th&#225;i bot</text></g><!--entity UC2--><g class="entity" data-qualified-name="Trading Bot V5.UC2" data-source-line="9" id="ent0008"><ellipse cx="143.5" cy="127" fill="#F1F1F1" rx="3" ry="3" style="stroke:#181818;stroke-width:0.5;"/><text fill="#000000" font-family="sans-serif" font-size="14" lengthAdjust="spacing" textLength="0" x="143.5" y="123.5">Ki&#7875;m tra heartbeat</text></g><!--entity UC3--><g class="entity" data-qualified-name="Trading Bot V5.UC3" data-source-line="10" id="ent0009"><ellipse cx="143.5" cy="86" fill="#F1F1F1" rx="3" ry="3" style="stroke:#181818;stroke-width:0.5;"/><text fill="#000000" font-family="sans-serif" font-size="14" lengthAdjust="spacing" textLength="0" x="143.5" y="82.5">B&#7853;t/T&#7855;t auto trading</text></g><!--entity UC4--><g class="entity" data-qualified-name="Trading Bot V5.UC4" data-source-line="11" id="ent0010"><ellipse cx="143.5" cy="45" fill="#F1F1F1" rx="3" ry="3" style="stroke:#181818;stroke-width:0.5;"/><text fill="#000000" font-family="sans-serif" font-size="14" lengthAdjust="spacing" textLength="0" x="143.5" y="41.5">Pause/Resume bot</text></g><!--entity UC5--><g class="entity" data-qualified-name="Trading Bot V5.UC5" data-source-line="12" id="ent0011"><ellipse cx="143.5" cy="414" fill="#F1F1F1" rx="3" ry="3" style="stroke:#181818;stroke-width:0.5;"/><text fill="#000000" font-family="sans-serif" font-size="14" lengthAdjust="spacing" textLength="0" x="143.5" y="410.5">&#272;&#7893;i mode paper/live</text></g><!--entity UC6--><g class="entity" data-qualified-name="Trading Bot V5.UC6" data-source-line="13" id="ent0012"><ellipse cx="143.5" cy="373" fill="#F1F1F1" rx="3" ry="3" style="stroke:#181818;stroke-width:0.5;"/><text fill="#000000" font-family="sans-serif" font-size="14" lengthAdjust="spacing" textLength="0" x="143.5" y="369.5">&#272;&#7893;i exchange</text></g><!--entity UC7--><g class="entity" data-qualified-name="Trading Bot V5.UC7" data-source-line="14" id="ent0013"><ellipse cx="143.5" cy="332" fill="#F1F1F1" rx="3" ry="3" style="stroke:#181818;stroke-width:0.5;"/><text fill="#000000" font-family="sans-serif" font-size="14" lengthAdjust="spacing" textLength="0" x="143.5" y="328.5">Qu&#7843;n l&#253; symbols</text></g><!--entity UC8--><g class="entity" data-qualified-name="Trading Bot V5.UC8" data-source-line="15" id="ent0014"><ellipse cx="143.5" cy="291" fill="#F1F1F1" rx="3" ry="3" style="stroke:#181818;stroke-width:0.5;"/><text fill="#000000" font-family="sans-serif" font-size="14" lengthAdjust="spacing" textLength="0" x="143.5" y="287.5">&#272;&#7893;i ng&#244;n ng&#7919;</text></g><!--entity UC9--><g class="entity" data-qualified-name="Trading Bot V5.UC9" data-source-line="16" id="ent0015"><ellipse cx="143.5" cy="250" fill="#F1F1F1" rx="3" ry="3" style="stroke:#181818;stroke-width:0.5;"/><text fill="#000000" font-family="sans-serif" font-size="14" lengthAdjust="spacing" textLength="0" x="143.5" y="246.5">Reset runtime config</text></g><!--entity UC10--><g class="entity" data-qualified-name="Trading Bot V5.UC10" data-source-line="17" id="ent0016"><ellipse cx="143.5" cy="209" fill="#F1F1F1" rx="3" ry="3" style="stroke:#181818;stroke-width:0.5;"/><text fill="#000000" font-family="sans-serif" font-size="14" lengthAdjust="spacing" textLength="0" x="143.5" y="205.5">&#272;&#243;ng t&#7845;t c&#7843; v&#7883; th&#7871;</text></g><!--entity UC11--><g class="entity" data-qualified-name="Trading Bot V5.UC11" data-source-line="18" id="ent0017"><ellipse cx="143.5" cy="455" fill="#F1F1F1" rx="3" ry="3" style="stroke:#181818;stroke-width:0.5;"/><text fill="#000000" font-family="sans-serif" font-size="14" lengthAdjust="spacing" textLength="0" x="143.5" y="451.5">Th&#7921;c thi strategy theo chu k&#7923;</text></g><!--entity UC12--><g class="entity" data-qualified-name="Trading Bot V5.UC12" data-source-line="19" id="ent0018"><ellipse cx="143.5" cy="537" fill="#F1F1F1" rx="3" ry="3" style="stroke:#181818;stroke-width:0.5;"/><text fill="#000000" font-family="sans-serif" font-size="14" lengthAdjust="spacing" textLength="0" x="143.5" y="533.5">B&#7843;o v&#7879; v&#7883; th&#7871;</text></g><!--entity UC13--><g class="entity" data-qualified-name="Trading Bot V5.UC13" data-source-line="20" id="ent0019"><ellipse cx="143.5" cy="496" fill="#F1F1F1" rx="3" ry="3" style="stroke:#181818;stroke-width:0.5;"/><text fill="#000000" font-family="sans-serif" font-size="14" lengthAdjust="spacing" textLength="0" x="143.5" y="492.5">&#272;&#7891;ng b&#7897; positions v&#224; orders</text></g><!--entity UC14--><g class="entity" data-qualified-name="Trading Bot V5.UC14" data-source-line="21" id="ent0020"><ellipse cx="143.5" cy="578" fill="#F1F1F1" rx="3" ry="3" style="stroke:#181818;stroke-width:0.5;"/><text fill="#000000" font-family="sans-serif" font-size="14" lengthAdjust="spacing" textLength="0" x="143.5" y="574.5">Persist runtime v&#224; engine state</text></g><!--entity Operator--><g class="entity" data-qualified-name="Operator" data-source-line="2" id="ent0002"><ellipse cx="19" cy="203.5" fill="#F1F1F1" rx="8" ry="8" style="stroke:#181818;stroke-width:0.5;"/><path d="M19,211.5 L19,238.5 M6,219.5 L32,219.5 M19,238.5 L6,253.5 M19,238.5 L32,253.5" fill="none" style="stroke:#181818;stroke-width:0.5;"/><text fill="#000000" font-family="sans-serif" font-size="14" lengthAdjust="spacing" textLength="0" x="19" y="255">Operator</text></g><!--entity Engine--><g class="entity" data-qualified-name="Engine" data-source-line="3" id="ent0003"><ellipse cx="19" cy="521.5" fill="#F1F1F1" rx="8" ry="8" style="stroke:#181818;stroke-width:0.5;"/><path d="M19,529.5 L19,556.5 M6,537.5 L32,537.5 M19,556.5 L6,571.5 M19,556.5 L32,571.5" fill="none" style="stroke:#181818;stroke-width:0.5;"/><text fill="#000000" font-family="sans-serif" font-size="14" lengthAdjust="spacing" textLength="0" x="19" y="573">Trading Engine</text></g><!--entity Exchange--><g class="entity" data-qualified-name="Exchange" data-source-line="4" id="ent0004"><ellipse cx="19" cy="416.5" fill="#F1F1F1" rx="8" ry="8" style="stroke:#181818;stroke-width:0.5;"/><path d="M19,424.5 L19,451.5 M6,432.5 L32,432.5 M19,451.5 L6,466.5 M19,451.5 L32,466.5" fill="none" style="stroke:#181818;stroke-width:0.5;"/><text fill="#000000" font-family="sans-serif" font-size="14" lengthAdjust="spacing" textLength="0" x="19" y="468">Exchange</text></g><!--entity Store--><g class="entity" data-qualified-name="Store" data-source-line="5" id="ent0005"><ellipse cx="19" cy="626.5" fill="#F1F1F1" rx="8" ry="8" style="stroke:#181818;stroke-width:0.5;"/><path d="M19,634.5 L19,661.5 M6,642.5 L32,642.5 M19,661.5 L6,676.5 M19,661.5 L32,676.5" fill="none" style="stroke:#181818;stroke-width:0.5;"/><text fill="#000000" font-family="sans-serif" font-size="14" lengthAdjust="spacing" textLength="0" x="19" y="678">SQLite Store</text></g><!--link Operator to UC1--><g class="link" data-entity-1="ent0002" data-entity-2="ent0007" data-link-type="dependency" data-source-line="24" id="lnk21"><path d="M32.85,216.45 C42.02,207.51 55.07,196.15 68.5,189 C94.43,175.19 124.494,170.4135 134.114,169.1135" fill="none" id="Operator-to-UC1" style="stroke:#181818;stroke-width:1;"/><polygon fill="#181818" points="140.06,168.31,130.6054,165.5513,135.105,168.9796,131.6767,173.4792,140.06,168.31" style="stroke:#181818;stroke-width:1;"/></g><!--link Operator to UC2--><g class="link" data-entity-1="ent0002" data-entity-2="ent0008" data-link-type="dependency" data-source-line="25" id="lnk22"><path d="M32.82,196.24 C40.75,179.52 52.52,160.32 68.5,148 C91.98,129.9 124.3936,127.6085 134.1736,127.2685" fill="none" id="Operator-to-UC2" style="stroke:#181818;stroke-width:1;"/><polygon fill="#181818" points="140.17,127.06,131.0365,123.3751,135.173,127.2337,131.3144,131.3703,140.17,127.06" style="stroke:#181818;stroke-width:1;"/></g><!--link Operator to UC3--><g class="link" data-entity-1="ent0002" data-entity-2="ent0009" data-link-type="dependency" data-source-line="26" id="lnk23"><path d="M25.23,194.69 C31.13,167.1 43.4,129.73 68.5,107 C90.48,87.1 123.99,85.8962 134.09,85.9362" fill="none" id="Operator-to-UC3" style="stroke:#181818;stroke-width:1;"/><polygon fill="#181818" points="140.09,85.96,131.1059,81.9244,135.09,85.9402,131.0742,89.9243,140.09,85.96" style="stroke:#181818;stroke-width:1;"/></g><!--link Operator to UC4--><g class="link" data-entity-1="ent0002" data-entity-2="ent0010" data-link-type="dependency" data-source-line="27" id="lnk24"><path d="M20.9,194.61 C23.77,157.57 33.98,100.14 68.5,66 C89.58,45.15 123.7516,44.5302 134.0516,44.7702" fill="none" id="Operator-to-UC4" style="stroke:#181818;stroke-width:1;"/><polygon fill="#181818" points="140.05,44.91,131.1456,40.7014,135.0514,44.7935,130.9593,48.6993,140.05,44.91" style="stroke:#181818;stroke-width:1;"/></g><!--link Operator to UC5--><g class="link" data-entity-1="ent0002" data-entity-2="ent0011" data-link-type="dependency" data-source-line="28" id="lnk25"><path d="M20.97,265.18 C23.89,302 34.15,359.08 68.5,393 C89.6,413.83 123.7516,414.4698 134.0516,414.2298" fill="none" id="Operator-to-UC5" style="stroke:#181818;stroke-width:1;"/><polygon fill="#181818" points="140.05,414.09,130.9593,410.3007,135.0514,414.2065,131.1456,418.2986,140.05,414.09" style="stroke:#181818;stroke-width:1;"/></g><!--link Operator to UC6--><g class="link" data-entity-1="ent0002" data-entity-2="ent0012" data-link-type="dependency" data-source-line="29" id="lnk26"><path d="M25.37,265.31 C31.33,292.65 43.63,329.54 68.5,352 C90.5,371.87 123.99,373.0878 134.1,373.0578" fill="none" id="Operator-to-UC6" style="stroke:#181818;stroke-width:1;"/><polygon fill="#181818" points="140.1,373.04,131.0882,369.0667,135.1,373.0548,131.1119,377.0667,140.1,373.04" style="stroke:#181818;stroke-width:1;"/></g><!--link Operator to UC7--><g class="link" data-entity-1="ent0002" data-entity-2="ent0013" data-link-type="dependency" data-source-line="30" id="lnk27"><path d="M32.91,263.35 C40.87,279.87 52.63,298.84 68.5,311 C92.03,329.03 124.4041,331.3593 134.1841,331.7193" fill="none" id="Operator-to-UC7" style="stroke:#181818;stroke-width:1;"/><polygon fill="#181818" points="140.18,331.94,131.3332,327.6116,135.1834,331.7561,131.039,335.6062,140.18,331.94" style="stroke:#181818;stroke-width:1;"/></g><!--link Operator to UC8--><g class="link" data-entity-1="ent0002" data-entity-2="ent0014" data-link-type="dependency" data-source-line="31" id="lnk28"><path d="M32.91,243.2 C42.11,251.93 55.16,263 68.5,270 C94.52,283.65 124.5269,288.5258 134.1169,289.8558" fill="none" id="Operator-to-UC8" style="stroke:#181818;stroke-width:1;"/><polygon fill="#181818" points="140.06,290.68,131.6948,285.4816,135.1074,289.9931,130.5958,293.4057,140.06,290.68" style="stroke:#181818;stroke-width:1;"/></g><!--link Operator to UC9--><g class="link" data-entity-1="ent0002" data-entity-2="ent0015" data-link-type="dependency" data-source-line="32" id="lnk29"><path d="M32.65,232.07 C60.77,236.66 121.1084,246.5033 134.2784,248.6533" fill="none" id="Operator-to-UC9" style="stroke:#181818;stroke-width:1;"/><polygon fill="#181818" points="140.2,249.62,131.9621,244.2222,135.2653,248.8144,130.6731,252.1177,140.2,249.62" style="stroke:#181818;stroke-width:1;"/></g><!--link Operator to UC10--><g class="link" data-entity-1="ent0002" data-entity-2="ent0016" data-link-type="dependency" data-source-line="33" id="lnk30"><path d="M32.65,227.83 C60.77,223.01 121.1164,212.6648 134.2864,210.4048" fill="none" id="Operator-to-UC10" style="stroke:#181818;stroke-width:1;"/><polygon fill="#181818" points="140.2,209.39,130.6531,206.9698,135.272,210.2356,132.0062,214.8545,140.2,209.39" style="stroke:#181818;stroke-width:1;"/></g><!--link Engine to UC11--><g class="link" data-entity-1="ent0003" data-entity-2="ent0017" data-link-type="dependency" data-source-line="35" id="lnk31"><path d="M32.92,519.78 C41.14,504.76 53.12,487.15 68.5,476 C92.5,458.6 124.528,455.8995 134.208,455.3995" fill="none" id="Engine-to-UC11" style="stroke:#181818;stroke-width:1;"/><polygon fill="#181818" points="140.2,455.09,131.0056,451.5596,135.2067,455.3479,131.4183,459.5489,140.2,455.09" style="stroke:#181818;stroke-width:1;"/></g><!--link Engine to UC12--><g class="link" data-entity-1="ent0003" data-entity-2="ent0018" data-link-type="dependency" data-source-line="36" id="lnk32"><path d="M32.65,546.86 C60.77,544.34 121.0539,538.9254 134.2239,537.7454" fill="none" id="Engine-to-UC12" style="stroke:#181818;stroke-width:1;"/><polygon fill="#181818" points="140.2,537.21,130.8789,534.0291,135.2199,537.6562,131.5929,541.9972,140.2,537.21" style="stroke:#181818;stroke-width:1;"/></g><!--link Engine to UC13--><g class="link" data-entity-1="ent0003" data-entity-2="ent0019" data-link-type="dependency" data-source-line="37" id="lnk33"><path d="M32.99,538.21 C42.43,531.47 55.74,522.74 68.5,517 C95.3,504.95 124.7843,499.1595 134.2043,497.4695" fill="none" id="Engine-to-UC13" style="stroke:#181818;stroke-width:1;"/><polygon fill="#181818" points="140.11,496.41,130.5451,494.0621,135.1886,497.2929,131.9578,501.9364,140.11,496.41" style="stroke:#181818;stroke-width:1;"/></g><!--link Engine to UC14--><g class="link" data-entity-1="ent0003" data-entity-2="ent0020" data-link-type="dependency" data-source-line="38" id="lnk34"><path d="M32.65,551.1 C60.77,557.98 121.2027,572.7808 134.3727,576.0108" fill="none" id="Engine-to-UC14" style="stroke:#181818;stroke-width:1;"/><polygon fill="#181818" points="140.2,577.44,132.4118,571.4114,135.3439,576.249,130.5063,579.1811,140.2,577.44" style="stroke:#181818;stroke-width:1;"/></g><!--link Exchange to UC11--><g class="link" data-entity-1="ent0004" data-entity-2="ent0017" data-link-type="dependency" data-source-line="40" id="lnk35"><path d="M32.65,444.24 C60.77,446.99 121.0586,452.8951 134.2286,454.1851" fill="none" id="Exchange-to-UC11" style="stroke:#181818;stroke-width:1;"/><polygon fill="#181818" points="140.2,454.77,131.6328,449.9117,135.2238,454.2826,130.8529,457.8736,140.2,454.77" style="stroke:#181818;stroke-width:1;"/></g><!--link Exchange to UC12--><g class="link" data-entity-1="ent0004" data-entity-2="ent0018" data-link-type="dependency" data-source-line="41" id="lnk36"><path d="M32.84,471.61 C41.02,486.84 53.01,504.7 68.5,516 C92.45,533.48 124.5173,536.1332 134.2073,536.6132" fill="none" id="Exchange-to-UC12" style="stroke:#181818;stroke-width:1;"/><polygon fill="#181818" points="140.2,536.91,131.4089,532.4696,135.2061,536.6626,131.0131,540.4598,140.2,536.91" style="stroke:#181818;stroke-width:1;"/></g><!--link Exchange to UC13--><g class="link" data-entity-1="ent0004" data-entity-2="ent0019" data-link-type="dependency" data-source-line="42" id="lnk37"><path d="M32.94,453.13 C42.36,460.1 55.66,469.11 68.5,475 C95.21,487.24 124.7494,492.918 134.1994,494.568" fill="none" id="Exchange-to-UC13" style="stroke:#181818;stroke-width:1;"/><polygon fill="#181818" points="140.11,495.6,131.9321,490.1116,135.1845,494.74,130.5561,497.9924,140.11,495.6" style="stroke:#181818;stroke-width:1;"/></g><!--link Store to UC14--><g class="link" data-entity-1="ent0005" data-entity-2="ent0020" data-link-type="dependency" data-source-line="43" id="lnk38"><path d="M32.65,645.26 C61.01,627.89 123.0738,589.8944 135.4138,582.3344" fill="none" id="Store-to-UC14" style="stroke:#181818;stroke-width:1;"/><polygon fill="#181818" points="140.53,579.2,130.7661,580.4908,136.2665,581.812,134.9453,587.3124,140.53,579.2" style="stroke:#181818;stroke-width:1;"/></g><?plantuml-src RPE_Rjim4CPtFiN1U-1OjlDdwP0YKmkqQToYAorV9A8oQP2KqQ3erA53bm95XsuDWen5KAIJX223-Y9yavvagc4OBmBluu_V7K_70iyiM0LQPBc5XT2OMg4auwbL6bwiK7DQ-70mqtmXP0R7CXCI1y2DNthW-7sQSvdruU3qvBcm2ASKREXknLYRXRW2xosFb8Ktqm5yO02bmPGRsdoBIx3QLHS4sBov431NjZDw_NGKWi-4gp-rB8SSkRPpv3sNXDoHgtxPuSnLrnPuIVUsc_IU7OViIqxBuIiqvHA3l9EG-VlLrTy5BDK2OSMfMyD2hD6Jqoqa-WvvP2z4JafNNKeecbimvykvAeodzhSOoQpv8-dhwcjF7OGKbOqMT2cjeEfJ9Sz4Vyd3XsxDJTjSLrrPI2a_h5tzXPhjghk-qRlXWLdkwjyf0G8CDSzYTau1AaZp4jwv-gO_DOhwVgbQwyzR_9FuUj-eehchVy1A6T6Eeu5rynEKNg3kUp9w-AzeGvZx2xSuTfD9LLAH_Q49-yXOFzMmi_Ea6wH8I69X70kJM9Z6mbuixCV2GImSFYfibx7Dy-g5KHGdKJoEuWaP-84BB28bUQICMVTE_xly0m00?></g></svg>